#!OML:ASF F:\VICON\USERDATA\INSTALL\Justin_Nancy\Justin_Nancy.ASF
:FULLY-SPECIFIED
:DEGREES
110
root 7.96738 17.1641 -2.61119 -6.441 -43.3895 12.7789
lowerback 5.90678 -0.20006 -6.08651
upperback -1.08169 -0.710514 0.347359
thorax -4.36956 -0.193259 3.85063
lowerneck -10.6904 -8.5948 -13.4869
upperneck 22.25 -11.495 8.10536
head 10.1109 -5.71859 3.60069
rclavicle -1.49089e-016 -3.18055e-015
rhumerus -30.3491 -6.96025 -86.2075
rradius 33.5815
rwrist 8.5495
rhand -14.5303 11.8798
rfingers 7.12502
rthumb 11.6177 -17.7782
lclavicle -1.49089e-016 -3.18055e-015
lhumerus -43.5849 23.5532 64.9003
lradius 31.9095
lwrist 0.692813
lhand -21.8404 22.9083
lfingers 7.12502
lthumb 4.56286 52.8391
rfemur -12.4577 2.61971 32.6055
rtibia 22.1931
rfoot -8.31378 9.84882
rtoes 15.2379
lfemur -19.7815 2.22663 -16.5505
ltibia 67.4965
lfoot 1.8646 9.7681
ltoes -1.75095
111
root 7.88564 17.1696 -2.43643 -6.55911 -45.737 13.1399
lowerback 5.59084 -0.152289 -5.85663
upperback -1.10444 -0.61227 0.277624
thorax -4.22738 -0.155288 3.63537
lowerneck -10.1576 -8.53602 -13.7741
upperneck 21.4617 -11.4899 8.61624
head 9.77919 -5.7019 3.84515
rclavicle 1.63997e-015 3.18055e-015
rhumerus -30.1529 -4.78715 -87.6315
rradius 35.8078
rwrist 6.5198
rhand -14.9027 11.4793
rfingers 7.12502
rthumb 11.2586 -18.1985
lclavicle 1.63997e-015 3.18055e-015
lhumerus -44.7351 24.0022 64.4434
lradius 31.0462
lwrist -1.06615
lhand -21.3322 22.4793
lfingers 7.12502
lthumb 5.05358 52.399
rfemur -11.5665 2.61298 32.7416
rtibia 21.9585
rfoot -10.0987 10.1809
rtoes 14.9228
lfemur -21.1932 1.79758 -16.3521
ltibia 67.1717
lfoot 0.551905 10.2738
ltoes -1.52693
112
root 7.80306 17.1687 -2.25847 -6.72121 -48.1677 13.4864
lowerback 5.46445 0.00629991 -5.63289
upperback -1.24072 -0.37686 0.361828
thorax -4.32327 -0.0370201 3.57565
lowerneck -11.3593 -8.66087 -13.5446
upperneck 22.1723 -11.5121 8.2102
head 10.2227 -5.70148 3.6179
rclavicle -4.72114e-015 4.77083e-015
rhumerus -30.2373 -2.61156 -88.5471
rradius 38.0121
rwrist 4.76966
rhand -14.7472 12.2069
rfingers 7.12502
rthumb 11.4085 -17.4627
lclavicle -4.72114e-015 4.77083e-015
lhumerus -45.8535 24.1005 64.4335
lradius 30.2114
lwrist -2.2575
lhand -20.7398 23.033
lfingers 7.12502
lthumb 5.62558 52.9383
rfemur -10.7392 2.57727 32.9327
rtibia 21.7777
rfoot -10.8643 10.4136
rtoes 8.6594
lfemur -22.42 1.37918 -16.0657
ltibia 66.7347
lfoot -0.924807 10.5393
ltoes -1.53658
113
root 7.72179 17.1742 -2.08397 -6.53287 -50.5789 13.3513
lowerback 5.39471 0.212264 -4.99223
upperback -1.32796 -0.0494364 0.4766
thorax -4.40648 0.114567 3.3046
lowerneck -12.2587 -8.68075 -12.7902
upperneck 22.537 -11.4363 7.51271
head 10.4207 -5.65165 3.22793
rclavicle -6.09772e-014 -2.38542e-015
rhumerus -30.2223 -0.994521 -89.3189
rradius 40.0169
rwrist 3.62934
rhand -14.8432 12.7682
rfingers 7.12502
rthumb 11.316 -16.9065
lclavicle -6.09772e-014 -2.38542e-015
lhumerus -46.4801 24.0064 64.6747
lradius 28.6218
lwrist -4.49117
lhand -21.302 21.4916
lfingers 7.12502
lthumb 5.08274 51.4106
rfemur -9.76564 3.00534 33.3402
rtibia 21.6749
rfoot -11.7923 10.0806
rtoes 9.54717
lfemur -23.5462 0.920807 -15.387
ltibia 66.1392
lfoot -2.25883 10.5586
ltoes -2.4064
114
root 7.6347 17.1649 -1.91691 -6.53483 -53.6544 13.4404
lowerback 5.08574 0.613031 -4.42233
upperback -1.19172 0.541274 0.414468
thorax -4.13679 0.38333 2.86644
lowerneck -12.7177 -8.65384 -12.6418
upperneck 22.2372 -11.4417 7.90012
head 10.4139 -5.58516 3.32454
rclavicle -4.6118e-014 -2.22639e-014
rhumerus -29.6629 0.267749 -90.4664
rradius 41.7974
rwrist 2.58542
rhand -15.1733 12.8589
rfingers 7.12502
rthumb 10.9976 -16.8331
lclavicle -4.6118e-014 -2.22639e-014
lhumerus -46.6095 23.9377 64.7355
lradius 27.0778
lwrist -6.0203
lhand -22.3578 19.4999
lfingers 7.12502
lthumb 4.06327 49.4409
rfemur -8.80237 3.51674 33.7515
rtibia 21.6225
rfoot -12.884 9.73127
rtoes 7.3419
lfemur -24.4184 1.22236 -14.6669
ltibia 65.4171
lfoot -3.66223 10.4475
ltoes -3.85587
115
root 7.5432 17.1644 -1.74076 -7.17478 -56.0989 14.3318
lowerback 4.85014 0.724465 -4.14776
upperback -1.10054 0.711756 0.187417
thorax -3.91532 0.452146 2.46383
lowerneck -13.2827 -8.50118 -12.838
upperneck 22.0182 -11.2441 8.53027
head 10.4713 -5.42591 3.59256
rclavicle 3.8763e-014 -1.66979e-014
rhumerus -29.2304 1.75805 -91.6719
rradius 43.6462
rwrist 1.56493
rhand -15.3926 12.6989
rfingers 7.12502
rthumb 10.7861 -17.0041
lclavicle 3.8763e-014 -1.66979e-014
lhumerus -47.0917 24.0794 64.5595
lradius 25.9007
lwrist -7.50539
lhand -22.1837 19.0541
lfingers 7.12502
lthumb 4.23142 48.9918
rfemur -8.0381 3.35734 33.5415
rtibia 21.796
rfoot -14.37 8.8209
rtoes 0.988008
lfemur -25.3223 1.12758 -14.5328
ltibia 64.4777
lfoot -4.76954 10.7832
ltoes -4.37233
116
root 7.45502 17.1635 -1.5636 -7.718 -58.362 15.0514
lowerback 4.98039 0.728729 -3.90747
upperback -1.2317 0.725379 0.214916
thorax -4.123 0.459588 2.35427
lowerneck -13.2455 -8.21289 -13.1606
upperneck 21.5387 -10.8137 8.9069
head 10.2813 -5.21547 3.84668
rclavicle 4.19436e-014 1.03368e-014
rhumerus -29.4156 3.91522 -92.5369
rradius 45.7363
rwrist 0.555811
rhand -15.3819 12.9341
rfingers 7.12502
rthumb 10.7964 -16.7685
lclavicle 4.19436e-014 1.03368e-014
lhumerus -48.3172 24.5862 64.3347
lradius 25.0791
lwrist -9.04662
lhand -20.5861 20.0735
lfingers 7.12502
lthumb 5.77393 49.9749
rfemur -7.3935 2.7554 33.4451
rtibia 22.0476
rfoot -15.5032 8.28873
rtoes -4.70832
lfemur -26.2389 1.07048 -14.2659
ltibia 63.4236
lfoot -5.52399 10.968
ltoes -3.68799
117
root 7.37145 17.1437 -1.39493 -8.38109 -60.9032 15.9052
lowerback 5.12036 0.921943 -3.74931
upperback -1.29547 0.988262 0.256826
thorax -4.28478 0.590601 2.28369
lowerneck -13.0142 -7.92598 -13.6443
upperneck 20.7981 -10.4573 9.71637
head 10.0037 -5.01122 4.27258
rclavicle -3.37934e-014 -1.82882e-014
rhumerus -29.5028 5.90893 -93.2481
rradius 47.8404
rwrist -0.510691
rhand -15.4469 13.3044
rfingers 7.12502
rthumb 10.7337 -16.4014
lclavicle -3.37934e-014 -1.82882e-014
lhumerus -49.2822 25.4759 63.9894
lradius 24.0368
lwrist -10.657
lhand -19.5076 20.6012
lfingers 7.12502
lthumb 6.81514 50.4715
rfemur -6.75624 2.75631 33.4077
rtibia 22.3269
rfoot -16.059 8.30886
rtoes -5.30066
lfemur -27.12 1.50227 -13.8764
ltibia 62.2269
lfoot -6.05782 10.762
ltoes -4.3503
118
root 7.29001 17.126 -1.2425 -8.50722 -63.2042 16.3086
lowerback 5.18573 1.09069 -3.36485
upperback -1.32913 1.23813 0.294089
thorax -4.36542 0.706974 2.08241
lowerneck -13.331 -7.65931 -13.8302
upperneck 20.5466 -10.0991 10.2607
head 9.96724 -4.79417 4.54325
rclavicle -5.02925e-014 -2.38542e-015
rhumerus -29.22 7.03341 -93.8094
rradius 49.5902
rwrist -0.657139
rhand -15.3909 13.7088
rfingers 7.12502
rthumb 10.7877 -15.9942
lclavicle -5.02925e-014 -2.38542e-015
lhumerus -49.9317 26.5016 63.4849
lradius 22.9751
lwrist -12.0506
lhand -18.9597 20.4844
lfingers 7.12502
lthumb 7.34406 50.337
rfemur -6.24482 3.52725 33.6407
rtibia 22.4937
rfoot -15.9304 8.51788
rtoes 3.62757
lfemur -28.2512 1.77625 -13.0464
ltibia 60.7964
lfoot -7.70222 8.75419
ltoes -9.21617
119
root 7.19634 17.1232 -1.07987 -9.09215 -65.0173 17.2807
lowerback 5.21537 1.0578 -3.23496
upperback -1.43562 1.20012 0.287877
thorax -4.48753 0.687752 2.00502
lowerneck -14.2397 -7.34794 -13.2485
upperneck 21.0643 -9.53129 9.51832
head 10.1734 -4.53639 4.25106
rclavicle 9.29318e-014 1.51076e-014
rhumerus -29.1693 8.18978 -94.3544
rradius 51.239
rwrist -0.321114
rhand -15.4607 13.9307
rfingers 7.12502
rthumb 10.7204 -15.7758
lclavicle 9.29318e-014 1.51076e-014
lhumerus -50.8128 27.5766 62.813
lradius 22.1942
lwrist -13.4552
lhand -18.2446 20.4595
lfingers 7.12502
lthumb 8.03426 50.2868
rfemur -5.8298 3.70335 33.5165
rtibia 22.6518
rfoot -16.1484 8.01706
rtoes 10.8035
lfemur -29.3081 1.22735 -12.5373
ltibia 59.0419
lfoot -7.97207 8.49038
ltoes -4.73017
120
root 7.07442 17.132 -0.88975 -11.4437 -67.0014 19.9811
lowerback 4.95987 1.07294 -3.55599
upperback -1.43108 1.20149 0.136839
thorax -4.34239 0.692411 2.03268
lowerneck -14.9146 -6.96855 -12.5912
upperneck 21.4222 -8.88055 8.66514
head 10.2682 -4.25717 3.92351
rclavicle -2.08724e-015 -3.97569e-015
rhumerus -29.0581 9.46892 -94.9597
rradius 52.6777
rwrist -0.0898507
rhand -15.4801 14.0599
rfingers 7.12502
rthumb 10.7016 -15.6476
lclavicle -2.08724e-015 -3.97569e-015
lhumerus -52.0556 29.1009 61.6502
lradius 21.5344
lwrist -15.0941
lhand -17.9352 20.1828
lfingers 7.12502
lthumb 8.33288 49.9985
rfemur -4.95921 3.53135 32.6201
rtibia 22.6057
rfoot -17.5152 6.37393
rtoes 1.73971
lfemur -29.5793 0.767573 -12.8468
ltibia 56.9351
lfoot -8.58246 8.0922
ltoes -6.72458
121
root 6.96961 17.1242 -0.731072 -12.5312 -68.8077 21.2662
lowerback 5.06042 1.0649 -3.46987
upperback -1.49984 1.19547 0.230753
thorax -4.4707 0.691516 2.07993
lowerneck -15.3226 -6.58411 -12.8075
upperneck 21.6833 -8.26214 8.72323
head 10.3771 -3.97693 4.07114
rclavicle 4.37326e-015 4.77083e-015
rhumerus -28.8869 10.2609 -95.3614
rradius 53.9654
rwrist 0.355115
rhand -15.0002 14.5429
rfingers 7.12502
rthumb 11.1645 -15.1401
lclavicle 4.37326e-015 4.77083e-015
lhumerus -52.802 30.4434 60.7651
lradius 20.3697
lwrist -15.8579
lhand -18.4902 19.7414
lfingers 7.12502
lthumb 7.79723 49.5777
rfemur -4.06175 4.378 32.573
rtibia 22.2799
rfoot -18.779 3.34655
rtoes 4.67613
lfemur -30.1068 0.511462 -12.2715
ltibia 54.7798
lfoot -8.86713 7.11655
ltoes -10.9915
122
root 6.86777 17.1141 -0.576842 -13.4245 -70.4705 22.2213
lowerback 5.26581 1.09364 -2.99046
upperback -1.41563 1.26162 0.24469
thorax -4.49187 0.710743 1.81664
lowerneck -15.7524 -6.12936 -13.4036
upperneck 21.6864 -7.5058 9.16258
head 10.4104 -3.61888 4.44127
rclavicle -1.43125e-014 1.11319e-014
rhumerus -28.4394 10.5737 -95.5016
rradius 55.0851
rwrist 1.18909
rhand -13.8473 15.2862
rfingers 7.12502
rthumb 12.2763 -14.3335
lclavicle -1.43125e-014 1.11319e-014
lhumerus -53.0579 31.4917 60.2493
lradius 19.3226
lwrist -16.2536
lhand -18.6176 19.3214
lfingers 7.12502
lthumb 7.67428 49.1622
rfemur -3.03479 4.95521 32.7061
rtibia 21.7699
rfoot -19.1028 1.47578
rtoes 4.40468
lfemur -30.5635 -0.246189 -11.2771
ltibia 52.5945
lfoot -9.30674 6.04325
ltoes -11.7568
123
root 6.75524 17.0909 -0.412302 -14.3204 -72.0816 23.2559
lowerback 5.12445 1.15824 -2.25466
upperback -1.17333 1.39751 0.0595894
thorax -4.14299 0.750106 1.20537
lowerneck -16.3021 -5.54783 -13.7326
upperneck 21.3579 -6.60796 9.69245
head 10.3098 -3.15334 4.81625
rclavicle 4.05521e-014 -1.35174e-014
rhumerus -27.6577 10.5911 -95.7274
rradius 56.0124
rwrist 1.82778
rhand -13.3417 15.6966
rfingers 7.12502
rthumb 12.7638 -13.8932
lclavicle 4.05521e-014 -1.35174e-014
lhumerus -53.7165 32.7301 59.3498
lradius 19.1216
lwrist -17.3442
lhand -17.9682 19.5686
lfingers 7.12502
lthumb 8.30098 49.3855
rfemur -2.10141 4.465 32.7215
rtibia 21.1647
rfoot -18.8529 1.31205
rtoes 6.7997
lfemur -31.1529 -0.750054 -10.2864
ltibia 50.624
lfoot -9.82621 4.85293
ltoes -15.0933
124
root 6.62297 17.0682 -0.240915 -16.093 -73.5745 25.3297
lowerback 4.81029 1.18564 -1.89696
upperback -1.09899 1.45796 -0.131596
thorax -3.87602 0.766447 0.809803
lowerneck -17.143 -5.43107 -14.1861
upperneck 21.9664 -6.41279 10.3502
head 10.7041 -3.01717 5.17805
rclavicle 2.44505e-014 -1.43125e-014
rhumerus -27.3399 10.8477 -96.0738
rradius 57.0079
rwrist 1.92726
rhand -14.0553 15.8221
rfingers 7.12502
rthumb 12.0758 -13.8094
lclavicle 2.44505e-014 -1.43125e-014
lhumerus -53.0411 32.8299 59.1944
lradius 18.0893
lwrist -17.1689
lhand -17.2837 20.1479
lfingers 7.12502
lthumb 8.96159 49.9376
rfemur -1.11203 4.42748 32.4471
rtibia 20.4579
rfoot -18.6568 1.07787
rtoes 8.91153
lfemur -31.7834 -0.476353 -9.92095
ltibia 48.6816
lfoot -10.2567 4.29627
ltoes -13.1208
